<svg width="219" height="48" viewBox="0 0 219 48" fill="none" xmlns="http://www.w3.org/2000/svg">
<path d="M50.698 29.228V38H46.21V13.792H55.594C58.722 13.792 60.966 14.37 62.326 15.526C63.686 16.6593 64.366 18.4047 64.366 20.762V22.258C64.366 24.6607 63.6633 26.4287 62.258 27.562C60.8527 28.6727 58.6313 29.228 55.594 29.228H50.698ZM59.844 21.272C59.844 20.524 59.7647 19.912 59.606 19.436C59.47 18.96 59.2207 18.5973 58.858 18.348C58.518 18.076 58.0647 17.8947 57.498 17.804C56.954 17.6907 56.274 17.634 55.458 17.634H50.698V25.386H55.458C56.274 25.386 56.954 25.3407 57.498 25.25C58.0647 25.1367 58.518 24.9553 58.858 24.706C59.2207 24.434 59.47 24.06 59.606 23.584C59.7647 23.108 59.844 22.496 59.844 21.748V21.272ZM70.7296 38H66.3096V26.372C66.3096 25.2387 66.4682 24.2867 66.7856 23.516C67.1029 22.7227 67.5676 22.088 68.1796 21.612C68.7916 21.136 69.5396 20.796 70.4236 20.592C71.3076 20.3653 72.3162 20.252 73.4496 20.252C74.3109 20.252 75.0476 20.252 75.6596 20.252C76.2716 20.252 76.8722 20.2633 77.4616 20.286L76.7476 23.958C76.2942 23.9353 75.7956 23.924 75.2516 23.924C74.7076 23.9013 74.2542 23.89 73.8916 23.89C73.1662 23.89 72.5996 23.958 72.1916 24.094C71.7836 24.23 71.4662 24.434 71.2396 24.706C71.0129 24.9553 70.8656 25.284 70.7976 25.692C70.7522 26.0773 70.7296 26.542 70.7296 27.086V38ZM86.6424 19.776C88.161 19.776 89.453 19.912 90.5184 20.184C91.5837 20.456 92.4564 20.9207 93.1364 21.578C93.8164 22.2127 94.3037 23.074 94.5984 24.162C94.9157 25.25 95.0744 26.61 95.0744 28.242V30.078C95.0744 31.71 94.9157 33.07 94.5984 34.158C94.3037 35.246 93.8164 36.1187 93.1364 36.776C92.4564 37.4107 91.5837 37.864 90.5184 38.136C89.453 38.408 88.161 38.544 86.6424 38.544C85.101 38.544 83.7977 38.408 82.7324 38.136C81.667 37.864 80.7944 37.4107 80.1144 36.776C79.4344 36.1187 78.9357 35.246 78.6184 34.158C78.3237 33.07 78.1764 31.71 78.1764 30.078V28.242C78.1764 26.61 78.3237 25.25 78.6184 24.162C78.9357 23.074 79.4344 22.2127 80.1144 21.578C80.7944 20.9207 81.667 20.456 82.7324 20.184C83.7977 19.912 85.101 19.776 86.6424 19.776ZM90.5864 28.174C90.5864 27.1313 90.5297 26.2927 90.4164 25.658C90.303 25.0007 90.099 24.502 89.8044 24.162C89.5324 23.822 89.1357 23.5953 88.6144 23.482C88.1157 23.3687 87.4584 23.312 86.6424 23.312C85.8264 23.312 85.1577 23.3687 84.6364 23.482C84.115 23.5953 83.707 23.822 83.4124 24.162C83.1404 24.502 82.9477 25.0007 82.8344 25.658C82.721 26.2927 82.6644 27.1313 82.6644 28.174V30.18C82.6644 31.2227 82.721 32.0613 82.8344 32.696C82.9477 33.3307 83.1404 33.818 83.4124 34.158C83.707 34.498 84.115 34.7247 84.6364 34.838C85.1577 34.9513 85.8264 35.008 86.6424 35.008C87.4584 35.008 88.1157 34.9513 88.6144 34.838C89.1357 34.7247 89.5324 34.498 89.8044 34.158C90.099 33.818 90.303 33.3307 90.4164 32.696C90.5297 32.0613 90.5864 31.2227 90.5864 30.18V28.174Z" fill="white"/>
<path d="M50.698 29.228V38H46.21V13.792H55.594C58.722 13.792 60.966 14.37 62.326 15.526C63.686 16.6593 64.366 18.4047 64.366 20.762V22.258C64.366 24.6607 63.6633 26.4287 62.258 27.562C60.8527 28.6727 58.6313 29.228 55.594 29.228H50.698ZM59.844 21.272C59.844 20.524 59.7647 19.912 59.606 19.436C59.47 18.96 59.2207 18.5973 58.858 18.348C58.518 18.076 58.0647 17.8947 57.498 17.804C56.954 17.6907 56.274 17.634 55.458 17.634H50.698V25.386H55.458C56.274 25.386 56.954 25.3407 57.498 25.25C58.0647 25.1367 58.518 24.9553 58.858 24.706C59.2207 24.434 59.47 24.06 59.606 23.584C59.7647 23.108 59.844 22.496 59.844 21.748V21.272ZM70.7296 38H66.3096V26.372C66.3096 25.2387 66.4682 24.2867 66.7856 23.516C67.1029 22.7227 67.5676 22.088 68.1796 21.612C68.7916 21.136 69.5396 20.796 70.4236 20.592C71.3076 20.3653 72.3162 20.252 73.4496 20.252C74.3109 20.252 75.0476 20.252 75.6596 20.252C76.2716 20.252 76.8722 20.2633 77.4616 20.286L76.7476 23.958C76.2942 23.9353 75.7956 23.924 75.2516 23.924C74.7076 23.9013 74.2542 23.89 73.8916 23.89C73.1662 23.89 72.5996 23.958 72.1916 24.094C71.7836 24.23 71.4662 24.434 71.2396 24.706C71.0129 24.9553 70.8656 25.284 70.7976 25.692C70.7522 26.0773 70.7296 26.542 70.7296 27.086V38ZM86.6424 19.776C88.161 19.776 89.453 19.912 90.5184 20.184C91.5837 20.456 92.4564 20.9207 93.1364 21.578C93.8164 22.2127 94.3037 23.074 94.5984 24.162C94.9157 25.25 95.0744 26.61 95.0744 28.242V30.078C95.0744 31.71 94.9157 33.07 94.5984 34.158C94.3037 35.246 93.8164 36.1187 93.1364 36.776C92.4564 37.4107 91.5837 37.864 90.5184 38.136C89.453 38.408 88.161 38.544 86.6424 38.544C85.101 38.544 83.7977 38.408 82.7324 38.136C81.667 37.864 80.7944 37.4107 80.1144 36.776C79.4344 36.1187 78.9357 35.246 78.6184 34.158C78.3237 33.07 78.1764 31.71 78.1764 30.078V28.242C78.1764 26.61 78.3237 25.25 78.6184 24.162C78.9357 23.074 79.4344 22.2127 80.1144 21.578C80.7944 20.9207 81.667 20.456 82.7324 20.184C83.7977 19.912 85.101 19.776 86.6424 19.776ZM90.5864 28.174C90.5864 27.1313 90.5297 26.2927 90.4164 25.658C90.303 25.0007 90.099 24.502 89.8044 24.162C89.5324 23.822 89.1357 23.5953 88.6144 23.482C88.1157 23.3687 87.4584 23.312 86.6424 23.312C85.8264 23.312 85.1577 23.3687 84.6364 23.482C84.115 23.5953 83.707 23.822 83.4124 24.162C83.1404 24.502 82.9477 25.0007 82.8344 25.658C82.721 26.2927 82.6644 27.1313 82.6644 28.174V30.18C82.6644 31.2227 82.721 32.0613 82.8344 32.696C82.9477 33.3307 83.1404 33.818 83.4124 34.158C83.707 34.498 84.115 34.7247 84.6364 34.838C85.1577 34.9513 85.8264 35.008 86.6424 35.008C87.4584 35.008 88.1157 34.9513 88.6144 34.838C89.1357 34.7247 89.5324 34.498 89.8044 34.158C90.099 33.818 90.303 33.3307 90.4164 32.696C90.5297 32.0613 90.5864 31.2227 90.5864 30.18V28.174Z" fill="url(#paint0_linear)"/>
<path d="M105.887 33.784C106.703 33.784 107.36 33.7273 107.859 33.614C108.357 33.478 108.754 33.2627 109.049 32.968C109.343 32.6733 109.536 32.2767 109.627 31.778C109.74 31.2793 109.797 30.6447 109.797 29.874V28.208C109.797 27.2107 109.763 26.3947 109.695 25.76C109.627 25.1253 109.457 24.6267 109.185 24.264C108.913 23.9013 108.516 23.652 107.995 23.516C107.473 23.38 106.771 23.312 105.887 23.312C105.003 23.312 104.3 23.38 103.779 23.516C103.257 23.652 102.861 23.9013 102.589 24.264C102.317 24.6267 102.147 25.1253 102.079 25.76C102.011 26.3947 101.977 27.2107 101.977 28.208V28.888C101.977 29.8853 102.011 30.7013 102.079 31.336C102.169 31.9707 102.339 32.4693 102.589 32.832C102.861 33.1947 103.257 33.444 103.779 33.58C104.3 33.716 105.003 33.784 105.887 33.784ZM109.797 36.096C109.343 36.4587 108.765 36.7533 108.063 36.98C107.36 37.2067 106.419 37.32 105.241 37.32C103.767 37.32 102.532 37.15 101.535 36.81C100.56 36.47 99.7666 35.96 99.1546 35.28C98.5653 34.5773 98.1346 33.7047 97.8626 32.662C97.6133 31.6193 97.4886 30.4067 97.4886 29.024V28.072C97.4886 26.7347 97.602 25.556 97.8286 24.536C98.078 23.4933 98.52 22.6207 99.1546 21.918C99.7893 21.2153 100.639 20.6827 101.705 20.32C102.793 19.9573 104.175 19.776 105.853 19.776C107.553 19.776 108.947 19.9687 110.035 20.354C111.123 20.7167 111.973 21.238 112.585 21.918C113.219 22.598 113.65 23.4253 113.877 24.4C114.103 25.352 114.217 26.4173 114.217 27.596V36.368C114.217 37.728 114.058 38.8953 113.741 39.87C113.446 40.8447 112.959 41.638 112.279 42.25C111.599 42.862 110.726 43.304 109.661 43.576C108.595 43.8707 107.303 44.018 105.785 44.018C105.309 44.018 104.855 44.018 104.425 44.018C103.994 44.018 103.529 44.018 103.031 44.018C102.532 44.018 101.977 44.0067 101.365 43.984C100.775 43.984 100.073 43.9727 99.2566 43.95L99.9706 40.414C100.605 40.4367 101.172 40.448 101.671 40.448C102.192 40.4707 102.668 40.482 103.099 40.482C103.552 40.482 103.971 40.482 104.357 40.482C104.765 40.482 105.173 40.482 105.581 40.482C106.351 40.482 106.997 40.414 107.519 40.278C108.063 40.1647 108.505 39.9493 108.845 39.632C109.185 39.3373 109.423 38.918 109.559 38.374C109.717 37.83 109.797 37.15 109.797 36.334V36.096ZM121.727 38H117.307V26.372C117.307 25.2387 117.466 24.2867 117.783 23.516C118.1 22.7227 118.565 22.088 119.177 21.612C119.789 21.136 120.537 20.796 121.421 20.592C122.305 20.3653 123.314 20.252 124.447 20.252C125.308 20.252 126.045 20.252 126.657 20.252C127.269 20.252 127.87 20.2633 128.459 20.286L127.745 23.958C127.292 23.9353 126.793 23.924 126.249 23.924C125.705 23.9013 125.252 23.89 124.889 23.89C124.164 23.89 123.597 23.958 123.189 24.094C122.781 24.23 122.464 24.434 122.237 24.706C122.01 24.9553 121.863 25.284 121.795 25.692C121.75 26.0773 121.727 26.542 121.727 27.086V38ZM137.64 19.776C139.158 19.776 140.45 19.912 141.516 20.184C142.581 20.456 143.454 20.9207 144.134 21.578C144.814 22.2127 145.301 23.074 145.596 24.162C145.913 25.25 146.072 26.61 146.072 28.242V30.078C146.072 31.71 145.913 33.07 145.596 34.158C145.301 35.246 144.814 36.1187 144.134 36.776C143.454 37.4107 142.581 37.864 141.516 38.136C140.45 38.408 139.158 38.544 137.64 38.544C136.098 38.544 134.795 38.408 133.73 38.136C132.664 37.864 131.792 37.4107 131.112 36.776C130.432 36.1187 129.933 35.246 129.616 34.158C129.321 33.07 129.174 31.71 129.174 30.078V28.242C129.174 26.61 129.321 25.25 129.616 24.162C129.933 23.074 130.432 22.2127 131.112 21.578C131.792 20.9207 132.664 20.456 133.73 20.184C134.795 19.912 136.098 19.776 137.64 19.776ZM141.584 28.174C141.584 27.1313 141.527 26.2927 141.414 25.658C141.3 25.0007 141.096 24.502 140.802 24.162C140.53 23.822 140.133 23.5953 139.612 23.482C139.113 23.3687 138.456 23.312 137.64 23.312C136.824 23.312 136.155 23.3687 135.634 23.482C135.112 23.5953 134.704 23.822 134.41 24.162C134.138 24.502 133.945 25.0007 133.832 25.658C133.718 26.2927 133.662 27.1313 133.662 28.174V30.18C133.662 31.2227 133.718 32.0613 133.832 32.696C133.945 33.3307 134.138 33.818 134.41 34.158C134.704 34.498 135.112 34.7247 135.634 34.838C136.155 34.9513 136.824 35.008 137.64 35.008C138.456 35.008 139.113 34.9513 139.612 34.838C140.133 34.7247 140.53 34.498 140.802 34.158C141.096 33.818 141.3 33.3307 141.414 32.696C141.527 32.0613 141.584 31.2227 141.584 30.18V28.174ZM158.312 27.29C159.332 27.3807 160.171 27.5847 160.828 27.902C161.508 28.1967 162.029 28.5707 162.392 29.024C162.777 29.4773 163.038 29.9873 163.174 30.554C163.333 31.1207 163.412 31.6987 163.412 32.288V32.798C163.412 34.5207 162.811 35.8353 161.61 36.742C160.409 37.626 158.539 38.068 156 38.068C155.569 38.068 155.048 38.068 154.436 38.068C153.824 38.068 153.167 38.068 152.464 38.068C151.784 38.068 151.081 38.0567 150.356 38.034C149.631 38.034 148.928 38.0227 148.248 38L148.928 34.396C150.084 34.4187 151.319 34.4413 152.634 34.464C153.949 34.464 155.127 34.464 156.17 34.464C157.303 34.464 158.074 34.3393 158.482 34.09C158.913 33.8407 159.128 33.3987 159.128 32.764C159.128 32.2653 158.992 31.88 158.72 31.608C158.471 31.336 157.893 31.1547 156.986 31.064L153.246 30.758C152.362 30.69 151.603 30.5087 150.968 30.214C150.356 29.9193 149.846 29.5567 149.438 29.126C149.053 28.6727 148.769 28.174 148.588 27.63C148.429 27.0633 148.35 26.474 148.35 25.862V25.352C148.35 23.7427 148.894 22.496 149.982 21.612C151.093 20.7053 152.951 20.252 155.558 20.252C156.533 20.252 157.598 20.2633 158.754 20.286C159.91 20.286 161.338 20.2973 163.038 20.32L162.358 23.924C161.361 23.9013 160.488 23.89 159.74 23.89C158.992 23.8673 158.335 23.856 157.768 23.856C157.224 23.856 156.737 23.856 156.306 23.856C155.898 23.856 155.524 23.856 155.184 23.856C154.187 23.856 153.495 23.9693 153.11 24.196C152.725 24.4 152.532 24.774 152.532 25.318C152.532 25.8393 152.657 26.2247 152.906 26.474C153.178 26.7007 153.79 26.8593 154.742 26.95L158.312 27.29ZM170.908 34.43H180.836L180.122 38H165.434V34.872L174.818 23.924H165.4L166.114 20.32H180.326V23.482L170.908 34.43ZM186.749 30.656C186.749 31.472 186.795 32.1407 186.885 32.662C186.976 33.1833 187.157 33.5913 187.429 33.886C187.724 34.1807 188.121 34.3847 188.619 34.498C189.118 34.6113 189.775 34.668 190.591 34.668C191.385 34.668 192.291 34.668 193.311 34.668C194.331 34.668 195.589 34.6453 197.085 34.6L196.405 38C195.771 38.0227 195.204 38.034 194.705 38.034C194.207 38.0567 193.719 38.068 193.243 38.068C192.79 38.068 192.337 38.068 191.883 38.068C191.43 38.068 190.931 38.068 190.387 38.068C188.778 38.068 187.452 37.8867 186.409 37.524C185.367 37.1613 184.539 36.64 183.927 35.96C183.338 35.28 182.919 34.4527 182.669 33.478C182.443 32.4807 182.329 31.3473 182.329 30.078V28.174C182.329 26.814 182.454 25.6127 182.703 24.57C182.953 23.5273 183.383 22.6547 183.995 21.952C184.63 21.2267 185.469 20.6827 186.511 20.32C187.577 19.9573 188.914 19.776 190.523 19.776C192.019 19.776 193.255 19.946 194.229 20.286C195.227 20.6033 196.02 21.0567 196.609 21.646C197.221 22.2353 197.652 22.938 197.901 23.754C198.151 24.5473 198.275 25.42 198.275 26.372V26.95C198.275 27.7207 198.23 28.3553 198.139 28.854C198.049 29.33 197.89 29.704 197.663 29.976C197.459 30.248 197.187 30.4293 196.847 30.52C196.507 30.6107 196.088 30.656 195.589 30.656H186.749ZM190.421 23.108C189.651 23.108 189.027 23.176 188.551 23.312C188.075 23.4253 187.701 23.652 187.429 23.992C187.157 24.3093 186.976 24.7513 186.885 25.318C186.795 25.862 186.749 26.5647 186.749 27.426H194.059V26.644C194.059 25.9867 194.003 25.4313 193.889 24.978C193.776 24.5247 193.583 24.162 193.311 23.89C193.039 23.618 192.665 23.4253 192.189 23.312C191.713 23.176 191.124 23.108 190.421 23.108ZM205.273 27.018L211.971 20.32H217.309L209.183 28.208L218.091 38H212.583L205.273 29.84V38H200.853V12.738H205.273V27.018Z" fill="#303030"/>
<path fill-rule="evenodd" clip-rule="evenodd" d="M34.3981 19.871C34.8504 20.1003 35.158 20.5421 35.2102 21.0496C35.2665 21.5559 35.0598 22.0499 34.6676 22.3725L15.4538 38.0204H26.7323C30.1981 38.0204 33.2697 35.7888 34.3407 32.4926L38.7627 18.8832C39.8337 15.587 38.6604 11.9761 35.8565 9.93893L29.8643 5.58534L25.0302 15.123L34.3981 19.871ZM25.4858 2.40419L7.29012 17.223C6.89653 17.5416 6.69249 18.0437 6.74746 18.5459C6.80107 19.0508 7.10729 19.4953 7.55963 19.7246L16.9275 24.4725L10.2176 37.7112C7.70646 36.9912 5.65033 35.0664 4.81405 32.4926L0.392093 18.8832C-0.678901 15.587 0.494366 11.9761 3.29826 9.93893L14.8751 1.52786C17.679 -0.509289 21.4758 -0.509287 24.2797 1.52787L25.4858 2.40419Z" fill="url(#paint1_linear)"/>
<defs>
<linearGradient id="paint0_linear" x1="131.5" y1="4" x2="131.5" y2="48" gradientUnits="userSpaceOnUse">
<stop stop-color="#F2994A"/>
<stop offset="1" stop-color="#EB5757"/>
</linearGradient>
<linearGradient id="paint1_linear" x1="9.15421" y1="5.70528" x2="31.6529" y2="37.9017" gradientUnits="userSpaceOnUse">
<stop stop-color="#F2994A"/>
<stop offset="1" stop-color="#EB5757"/>
</linearGradient>
</defs>
</svg>
