<svg width="606" height="619" viewBox="0 0 606 619" fill="none" xmlns="http://www.w3.org/2000/svg">
<g clip-path="url(#clip0)">
<path d="M542.54 384.402C552.8 447.866 510.582 508.787 448.881 536.271C384.86 564.781 313.007 554.323 246.26 536.832C240.562 535.331 234.873 533.784 229.209 532.177C187.368 520.394 145.34 503.043 112.598 474.893C77.9412 445.12 38.5208 392.342 45.7214 346.226C51.3844 309.96 66.227 272.894 106.815 261.647C128.589 255.604 151.794 259.085 173.924 255.263C194.836 251.649 211.921 238.662 225.083 223.628C240.529 205.993 252.1 185.376 269.094 169.077C309.15 130.667 376.688 122.148 426.47 151.543C451.799 166.491 469.539 189.984 479.518 216.184C490.461 244.901 488.715 276.875 504.233 304.197C519.086 330.349 537.716 354.537 542.54 384.402Z" fill="#F2C94C"/>
<path d="M259.488 503.506C251.393 496.459 243.94 488.643 236.38 480.712C222.066 465.741 208.209 453.535 188.271 445.731C168.004 437.791 145.969 433.549 127.421 421.918C102.122 406.047 87.4577 377.944 83.4722 349.727C79.4866 321.51 85.0364 293.033 93.027 265.821C67.5791 283.541 50.3013 311.247 46.1133 341.029C38.8892 392.532 73.4236 441.213 112.599 474.893C145.357 503.046 187.368 520.394 229.21 532.177C234.876 533.768 240.563 535.331 246.261 536.832C294.79 549.565 347.022 559.362 396.935 551.243C386.333 552.969 372.001 546.266 361.945 543.573C337.624 537.069 312.471 532.999 289.32 522.919C277.953 517.97 268.339 511.193 259.488 503.506Z" fill="#F2994A"/>
<path d="M448.882 536.271C432.911 543.384 416.459 548.064 399.712 550.821C349.901 549.997 303.94 529.719 270.865 492.744C250.781 469.763 241.777 438.129 213.726 424.316C179.703 407.98 137.273 412.768 111.468 385.803C80.8582 352.289 79.254 306.654 94.0466 266.411C97.9859 264.523 102.23 262.912 106.8 261.644C128.589 255.604 151.794 259.085 173.91 255.261C194.821 251.646 211.907 238.659 225.068 223.626C236.101 211.029 245.154 196.91 255.631 183.915C259.814 178.725 264.237 173.72 269.098 169.061C309.138 130.648 376.689 122.148 426.471 151.543C445.009 162.484 459.471 177.993 469.813 195.791C473.613 202.312 476.847 209.152 479.519 216.184C490.461 244.901 488.716 276.875 504.234 304.197C519.087 330.349 537.716 354.538 542.541 384.402C552.801 447.866 510.583 508.788 448.882 536.271Z" fill="#F2C94C"/>
<path d="M469.813 195.791C459.895 203.074 446.527 205.816 434.732 202.058C427.972 207.624 417.6 208.286 410.167 203.641C402.749 198.998 398.805 189.381 400.851 180.866C397.047 197.993 378.363 210.307 361.136 207.062C344.432 203.939 331.77 186.705 333.425 169.883C332.472 174.904 328.533 179.32 323.579 180.682C318.1 182.211 311.776 179.883 308.578 175.177C303.586 188.389 288.752 197.089 274.786 194.993C267.295 193.874 260.484 189.703 255.631 183.915C259.814 178.725 264.237 173.72 269.098 169.061C309.138 130.648 376.689 122.148 426.471 151.543C445.009 162.484 459.471 177.993 469.813 195.791Z" fill="#F2994A"/>
<path d="M389.95 156.877C389.853 155.1 387.04 155.356 387.181 157.156C387.656 163.189 383.461 169.385 377.194 170.187C371.535 170.901 366.255 167.328 364.263 162.123C363.764 160.822 362.088 161.176 361.741 162.365C359.44 170.404 352.522 176.615 344.053 177.282C340.162 177.577 336.244 176.62 332.815 174.771C328.919 172.65 326.948 169.481 324.076 166.335C323.562 165.783 322.738 166.203 322.914 166.953C325.041 175.492 336.909 180.222 344.828 179.398C352.924 178.572 359.886 173.04 363.187 165.796C366.363 170.818 372.421 173.868 378.44 172.64C385.687 171.157 390.36 164.035 389.95 156.877Z" fill="#F2C94C"/>
<path d="M480.362 506.652C471.995 516.664 465.944 525.295 453.906 531.592C443.624 536.973 432.419 540.356 422.033 545.511C401.524 555.674 378.892 560.931 356.109 562.289C342.964 563.069 337.011 552.005 345.929 542.887C354.361 534.278 366.507 530.256 374.172 520.7C389.477 501.649 379.075 471.265 392.354 450.763C395.352 446.139 400.981 441.948 405.983 444.242C412.142 447.069 410.971 456.086 408.667 462.46C405.73 470.567 405.711 486.148 418.607 482.797C442.189 476.663 437.85 435.986 436.156 419.376C435.019 408.222 437.707 398.665 438.826 387.704C439.395 382.121 442.068 375.745 447.586 374.735C452.87 373.781 457.691 378.636 459.077 383.833C460.447 389.027 459.463 394.507 459.284 399.869C459.208 402.192 459.317 404.642 460.516 406.623C461.712 408.619 464.318 409.944 466.433 408.993C468.566 408.029 469.284 405.416 469.742 403.11C472.429 389.712 474.05 378.437 473.808 364.763C473.583 352.021 470.965 336.79 473.104 324.259C472.986 317.454 473.356 309.566 478.808 305.472C485.587 300.358 496.099 305.256 499.822 312.884C503.545 320.511 502.506 329.502 501.374 337.917C498.644 358.315 497.982 379.819 493.36 399.67C492.991 401.271 492.632 403.002 493.321 404.495C494.741 407.522 499.551 407.095 501.755 404.591C503.959 402.087 504.388 398.544 505.072 395.285C505.757 392.026 507.101 388.463 510.149 387.112C513.856 385.457 518.374 388.148 520.017 391.837C521.673 395.543 521.166 399.825 520.313 403.791C516.257 422.395 507.467 442.479 491.111 453.159C481.906 459.171 471.83 463.067 463.476 470.377C454.687 478.077 451.924 487.701 447.714 498.391C450.852 501.854 456.657 501.038 460.581 498.491C464.489 495.942 467.394 492.054 471.276 489.469C475.161 486.868 480.925 485.916 484.175 489.287C486.446 491.643 486.685 495.396 485.631 498.48C484.591 501.566 482.455 504.146 480.362 506.652Z" fill="#F2994A"/>
<path d="M504.639 410.571C499.865 414.54 496.001 419.737 491.879 424.377C487.258 429.604 482.623 434.813 478.002 440.04C471.596 447.283 465.014 454.431 458.675 461.749C473.132 436.505 483.251 408.824 488.4 380.071C493.021 354.315 494.25 327.149 489.767 301.279C489.605 300.355 488.225 300.472 488.301 301.429C490.392 324.81 490.701 348.031 487.238 371.312C483.872 393.938 477.491 416.129 468.223 437.043C463.196 448.393 457.302 459.291 450.64 469.722C450.1 445.229 448.439 420.737 447.316 396.289C447.27 395.241 445.656 395.414 445.704 396.446C446.473 422.13 446.656 447.873 448.166 473.524C433.932 494.934 416.41 514.135 396.357 530.344C399.473 510.875 400.043 490.38 396.305 471.118C396.127 470.192 394.719 470.287 394.808 471.262C396.784 492.032 396.962 512.271 393.288 532.764C392.585 533.316 391.898 533.871 391.183 534.404C383.176 540.526 374.886 545.958 366.326 550.913C344.003 549.39 321.968 544.684 300.923 536.708C286.176 531.118 271.982 524.071 258.715 515.534C245.376 506.952 233.01 496.889 219.308 488.838C191.973 472.795 159.389 469.409 132.076 453.338C107.731 439.005 87.9206 416.951 76.4534 391.121C62.6877 360.099 61.5678 324.659 71.5935 292.37C71.8851 291.412 70.2453 290.892 69.907 291.842C50.1199 347.841 70.6828 411.704 117.874 447.185C129.604 456.004 142.588 462.636 156.364 467.628C172.355 473.43 188.969 477.547 204.564 484.449C220.516 491.508 234.268 502.176 248.499 512.094C261.557 521.203 275.345 529.125 289.951 535.443C312.633 545.267 336.964 551.437 361.626 553.599C353.566 558.063 345.31 562.173 336.824 566.037C336.7 565.264 335.774 564.594 335.027 565.218C333.648 566.359 332.3 567.505 330.991 568.705C329.796 569.797 330.656 571.976 332.397 571.345C344.643 566.924 356.522 560.904 367.823 554.049C377.01 554.609 386.231 554.599 395.42 554.024C397.28 553.91 396.982 551.059 395.125 551.158C387.516 551.571 379.893 551.597 372.3 551.261C377.147 548.184 381.888 544.978 386.468 541.68C388.491 540.233 390.473 538.747 392.461 537.231C392.398 537.972 393.111 538.862 393.913 538.663C403.258 536.514 412.586 534.378 421.931 532.23C426.479 531.182 431.025 530.15 435.558 529.1C439.888 528.111 444.556 527.484 448.668 525.802C449.804 525.34 449.403 523.655 448.189 523.736C443.625 524.029 438.977 525.571 434.53 526.588C429.982 527.636 425.449 528.686 420.904 529.718C412.423 531.678 403.944 533.623 395.447 535.58C395.495 535.301 395.561 535.008 395.609 534.728C408.781 524.321 420.952 512.654 431.851 499.907C439.873 490.508 447.146 480.533 453.665 470.094C462.421 460.997 470.634 451.327 479.042 441.914C483.515 436.902 487.988 431.889 492.445 426.874C496.84 421.944 501.95 417.136 505.569 411.594C505.976 410.992 505.311 410.014 504.639 410.571Z" fill="#F2C94C"/>
<path d="M252.455 537.297C231.615 520.619 208.579 506.399 184.67 494.573C172.731 488.663 160.5 483.342 148.035 478.638C135.598 473.955 122.728 469.278 109.64 466.82C109.052 466.703 108.732 467.641 109.32 467.853C121.832 472.373 134.61 475.995 147.043 480.789C159.251 485.497 171.232 490.791 182.924 496.643C206.944 508.664 229.393 523.136 250.845 539.231C252.119 540.2 253.722 538.314 252.455 537.297Z" fill="#F2C94C"/>
<path d="M337.623 557.133C314.362 564.762 288.566 565.399 264.963 558.905C263.525 558.516 262.032 558.069 260.489 557.549C264.036 554.395 266.757 550.459 268.028 545.636C270.092 537.764 265.346 529.658 259.598 525.733C254.396 522.173 248.637 521.973 244.179 525.212C241.18 527.404 239.255 530.708 238.64 534.779C237.886 539.85 239.274 545.319 242.352 549.413C245.456 553.543 249.68 556.36 254.069 558.405C249.121 561.417 243.255 563.247 237.815 564.079C210.013 568.308 179.405 555.227 157.914 529.894C141.111 510.097 129.431 483.735 121.147 446.944C118.463 435.013 116.233 422.761 114.082 410.889C111.013 393.901 107.841 376.383 103.218 359.402C110.751 352.592 117.083 343.529 121.537 332.913C128.231 316.951 130.393 299.224 132.043 282.434L132.459 278.121C133.919 262.818 135.439 246.981 140.136 232.215C151.949 195.175 185.577 165.539 223.814 158.499C236.688 156.121 247.591 156.846 256.239 160.658C250.864 163.085 245.711 166.733 242.015 172.262C237.935 178.35 236.901 186.653 239.339 193.934C241.306 199.853 245.283 204.117 250.526 205.94C255.634 207.708 261.465 206.831 266.559 203.525C272.407 199.739 276.361 193.358 276.905 186.891C277.702 177.347 272.454 167.491 263.72 161.279C268.243 160.004 272.576 159.463 275.845 159.253C282.012 158.85 288.326 159.176 294.433 159.499C300.527 159.803 306.826 160.126 313.049 159.765C338.229 158.239 362.772 144.413 377.118 123.662C389.565 105.69 395.701 75.1855 392.548 51.5589L389.267 50.9987C392.534 73.8608 386.53 104.532 374.526 121.875C360.715 141.838 337.092 155.149 312.851 156.611C306.804 156.97 300.601 156.648 294.603 156.344C288.401 156.021 281.99 155.694 275.647 156.1C271.551 156.376 265.92 157.111 260.206 159.08C259.546 158.727 258.883 158.39 258.215 158.084C248.856 153.75 237.103 152.847 223.24 155.393C183.895 162.644 149.288 193.137 137.131 231.254C132.331 246.338 130.798 262.349 129.309 277.823L128.895 282.12C127.218 299.354 125.155 316.122 118.623 331.696C114.579 341.325 108.955 349.613 102.267 355.975C99.0659 344.725 94.5711 332.053 85.7582 322.645C77.5936 313.939 63.4736 307.304 50.3595 312.121C42.9647 314.843 37.1948 321.266 34.5421 329.773C31.5534 339.311 32.9905 349.925 38.2989 357.455C48.0387 371.278 68.6606 376.671 86.2898 369.968C91.3238 368.044 96.1226 365.247 100.574 361.671C104.946 378.065 108.005 395.02 110.978 411.447C113.139 423.353 115.361 435.652 118.066 447.65C126.456 484.939 138.368 511.725 155.501 531.93C171.612 550.905 192.715 563.227 214.13 566.883C222.217 568.264 230.37 568.408 238.291 567.2C244.782 566.212 251.858 563.852 257.567 559.851C259.823 560.7 262.046 561.367 264.123 561.946C288.307 568.602 314.762 567.951 338.602 560.117L337.623 557.133ZM259.887 162.545C268.93 167.977 274.524 177.492 273.765 186.627C273.302 192.148 269.889 197.613 264.834 200.878C260.567 203.654 255.732 204.412 251.562 202.964C247.273 201.464 243.992 197.896 242.329 192.924C240.229 186.661 241.129 179.231 244.627 174.02C248.491 168.264 254.154 164.718 259.887 162.545ZM85.1601 367.023C68.8504 373.215 49.8061 368.332 40.8814 355.64C36.1276 348.892 34.8473 339.33 37.5523 330.703C39.9134 323.154 44.9828 317.46 51.4555 315.077C55.6216 313.548 59.9332 313.324 64.0854 314.033C71.6124 315.318 78.6476 319.671 83.4518 324.811C91.9135 333.84 96.2535 346.293 99.3697 357.289C99.4695 357.642 99.5564 357.977 99.6562 358.33C95.1855 362.111 90.2954 365.068 85.1601 367.023ZM257.104 556.283C252.5 554.377 248 551.673 244.883 547.525C242.339 544.147 241.143 539.43 241.761 535.248C242.112 533.004 243.126 529.881 246.049 527.756C248.333 526.098 250.694 525.861 252.747 526.211C254.955 526.588 256.808 527.64 257.825 528.342C262.654 531.647 266.661 538.363 264.966 544.825C263.726 549.558 260.855 553.34 257.104 556.283Z" fill="#2D9CDB"/>
<path d="M399.541 341.813L384.89 427.633C384.402 430.494 383.279 433.134 381.698 435.36C377.614 441.191 370.396 444.471 362.916 443.194L236.124 421.548L200.003 447.126L205.269 416.281L200.09 415.397C189.718 413.626 182.753 403.797 184.523 393.427L199.174 307.607C200.945 297.237 210.776 290.275 221.149 292.046L383.974 319.843C394.347 321.614 401.311 331.443 399.541 341.813Z" fill="#27AE60"/>
<path d="M399.542 341.813L384.891 427.633C384.402 430.494 383.28 433.134 381.699 435.36L373.251 423.438L246.459 401.792C236.086 400.021 229.122 390.192 230.895 379.807L245.177 296.148L383.975 319.843C394.348 321.614 401.312 331.443 399.542 341.813Z" fill="#219653"/>
<path d="M446.626 297.851L283.801 270.053C273.428 268.283 263.579 275.257 261.808 285.627L247.155 371.463C245.384 381.833 252.362 391.68 262.735 393.451L389.527 415.096L415.115 451.209L420.381 420.364L425.56 421.248C435.933 423.019 445.782 416.044 447.553 405.674L462.206 319.839C463.961 309.466 456.999 299.621 446.626 297.851Z" fill="#2D9CDB"/>
<path d="M439.444 401.89L452.856 323.33C454.475 313.847 448.091 304.837 438.604 303.217L289.573 277.775" stroke="white" stroke-width="1.1597" stroke-miterlimit="10"/>
<path d="M313.986 368.68C313.211 373.22 308.899 376.259 304.373 375.487C299.832 374.712 296.791 370.4 297.563 365.876C298.338 361.336 302.651 358.297 307.176 359.069C311.72 359.829 314.761 364.14 313.986 368.68Z" fill="white"/>
<path d="M357.919 376.18C357.144 380.72 352.832 383.76 348.307 382.987C343.766 382.212 340.725 377.9 341.497 373.376C342.272 368.837 346.584 365.797 351.11 366.569C355.653 367.329 358.695 371.64 357.919 376.18Z" fill="white"/>
<path d="M401.853 383.68C401.078 388.22 396.766 391.26 392.24 390.487C387.699 389.712 384.658 385.401 385.431 380.877C386.206 376.337 390.518 373.297 395.043 374.069C399.571 374.827 402.628 379.14 401.853 383.68Z" fill="white"/>
<path d="M490.819 250.114L507.126 268.594L519.378 241.358L490.819 250.114Z" fill="#219653"/>
<path d="M548.696 240.251L456.962 274.527L419.56 177.772L548.696 240.251Z" fill="#27AE60"/>
<path d="M532.968 237.502L456.955 199.66" stroke="white" stroke-miterlimit="10"/>
<path d="M499.133 259.07L419.56 177.772L514.425 252.368L499.133 259.07Z" fill="#219653"/>
<path d="M234.491 167.927L97.1904 190.924L111.074 273.728L248.375 250.731L234.491 167.927Z" fill="#2D9CDB"/>
<path d="M192.332 253.19L239.428 245.726L231.392 186.017" stroke="white" stroke-miterlimit="10"/>
<path d="M248.369 250.724L173.087 222.576L111.076 273.718L248.369 250.724Z" fill="#2D9CDB"/>
<path d="M234.479 167.936L223.345 177.843L173.087 222.576L111.477 196.65L97.6966 190.841L108.866 181.1L135.664 157.722L158.816 137.514L187.483 149.032L220.762 162.41L234.479 167.936Z" fill="#0978B0"/>
<path d="M217.667 143.977L223.344 177.843L173.087 222.576L111.477 196.65L105.779 162.716L217.667 143.977Z" fill="#27AE60"/>
<path d="M127.892 175.5L149.015 171.954" stroke="white" stroke-width="1.1271" stroke-miterlimit="10"/>
<path d="M130.391 190.39L202.29 178.361" stroke="white" stroke-width="1.1271" stroke-miterlimit="10"/>
<path d="M131.785 198.725L203.686 186.679" stroke="white" stroke-width="1.1271" stroke-miterlimit="10"/>
<path d="M532.799 423.555C533.498 426.026 536.51 435.197 538.689 440.433C543.026 450.837 543.689 456.423 538.875 467.185C533.953 478.201 527.007 488.231 519.967 497.974C505.272 518.329 486.805 535.849 466.042 549.936C407.59 589.606 356.934 575.454 347.915 575.787C338.898 576.103 325.779 554.231 325.779 554.231C339.852 547.546 364.569 542.357 376.623 540.095C376.623 540.095 380.491 567.876 427.693 541.694C474.899 515.496 517.894 480.675 497.046 462.268C507.862 445.97 532.799 423.555 532.799 423.555Z" fill="#2D9CDB"/>
<path d="M465.451 539.243C465.451 539.243 515.565 505.286 537.387 452.931" stroke="white" stroke-miterlimit="10"/>
<path d="M497.04 462.299C497.043 462.284 497.043 462.284 497.061 462.271C517.91 480.678 474.914 515.499 427.709 541.696C380.504 567.894 376.638 540.098 376.638 540.098C380.955 539.283 383.638 538.845 383.638 538.845C397.032 562.764 477.49 496.194 488.835 486.643C500.181 477.091 493.546 468.519 493.546 468.519L497.04 462.299Z" fill="#0978B0"/>
<path d="M497.04 462.299L493.512 468.529C494.365 466.626 495.574 464.513 497.04 462.299Z" fill="#D81313"/>
<path d="M325.792 554.249L318.781 536.908C316.048 530.138 318.985 522.399 325.542 519.15C335.874 514.034 351.57 507.498 365.548 506.62C372.683 506.174 378.992 511.219 380.175 518.253L383.638 538.845L325.792 554.249Z" fill="#2D9CDB"/>
<path d="M493.528 468.531L482.868 459.72C479.559 456.979 478.08 452.614 479.066 448.43C481.626 437.651 489.091 417.645 509.828 410.081C513.924 408.589 518.511 409.564 521.622 412.623L532.784 423.553C532.8 423.555 513.244 444.633 493.528 468.531Z" fill="#2D9CDB"/>
<path d="M383.635 538.86C383.635 538.86 359.694 551.413 325.791 554.25" stroke="#0978B0" stroke-width="3" stroke-miterlimit="10"/>
<path d="M493.527 468.532C493.527 468.532 526.039 446.93 532.801 423.54" stroke="#0978B0" stroke-width="3" stroke-miterlimit="10"/>
<path d="M520.066 277.171C528.343 288.313 532.529 302.419 531.669 316.273C531.201 323.793 529.177 331.432 524.49 337.32C519.804 343.208 512.109 347.03 504.678 345.745C497.263 344.464 490.944 337.225 491.931 329.761C493.031 321.533 502.371 316.231 510.588 317.41C518.803 318.604 525.566 324.735 529.987 331.746C541.58 350.093 539.087 376.132 524.239 391.949" stroke="#27AE60" stroke-width="2" stroke-miterlimit="10"/>
<path d="M100.477 534.552C136.55 540.711 170.784 516.468 176.941 480.405C183.098 444.342 158.845 410.115 122.772 403.957C86.6984 397.798 52.4642 422.041 46.3075 458.104C40.1509 494.167 64.4033 528.394 100.477 534.552Z" fill="#27AE60"/>
<path d="M121.84 409.414C154.903 415.058 177.125 446.42 171.482 479.474" stroke="white" stroke-miterlimit="10"/>
<path d="M162.046 486.812C171.731 458.972 157.007 428.551 129.158 418.866C101.31 409.181 70.8823 423.898 61.197 451.738C51.5117 479.578 66.236 509.999 94.0847 519.684C121.933 529.369 152.361 514.652 162.046 486.812Z" fill="white"/>
<path d="M120.606 416.643C105.07 413.991 89.9712 418.341 78.5032 427.392C89.2518 420.587 102.47 417.595 116 419.905C145.066 424.867 164.606 452.443 159.645 481.501C157.336 495.027 150.115 506.482 140.14 514.379C152.482 506.582 161.6 493.77 164.251 478.239C169.212 449.181 149.672 421.605 120.606 416.643Z" fill="#5CA0C1"/>
<path d="M119.701 433.289L113.042 472.297L141.159 477.097" stroke="#2D9CDB" stroke-width="5" stroke-miterlimit="10" stroke-linecap="round" stroke-linejoin="round"/>
</g>
<defs>
<clipPath id="clip0">
<rect width="522" height="538" fill="white" transform="translate(90.5361) rotate(9.68804)"/>
</clipPath>
</defs>
</svg>
